<svg width="50" height="50" viewBox="0 0 50 50" fill="none" xmlns="http://www.w3.org/2000/svg">
<path d="M47.0705 25C47.0705 24.191 47.7264 23.5351 48.5354 23.5351C49.3443 23.5351 50.0002 24.191 50 25C50 31.6777 47.3997 37.9557 42.6777 42.6776L40.4824 40.7143C44.5471 36.7091 47.0705 31.1437 47.0705 25Z" fill="black"/>
<path d="M2.92979 25C2.92979 37.1695 12.8305 47.0701 25.0001 47.0701C27.7663 47.0701 30.4153 46.5586 32.8574 45.6252L34.286 48.226C31.3718 49.3906 28.2328 50 25.0001 50C18.3223 50 12.0443 47.3995 7.32228 42.6776C2.6004 37.9557 0 31.6777 0 25C0 18.3224 2.6004 12.0444 7.32228 7.32241C12.0442 2.60066 18.3223 0.000189288 25.0001 0.000189288C29.4925 0.000189288 33.8549 1.19286 37.6917 3.45818L40.7207 0.429191C41.1395 0.0101502 41.7695 -0.11524 42.3171 0.111614C42.8645 0.338371 43.2214 0.87245 43.2214 1.46493V8.47397C43.2214 9.28295 42.5655 9.93881 41.7565 9.93881H34.7474C34.155 9.93881 33.6209 9.58187 33.3941 9.03451C33.1674 8.48706 33.2927 7.85708 33.7117 7.43814L35.543 5.6068C32.3207 3.85114 28.711 2.92976 25.0001 2.92976C12.8305 2.92976 2.92979 12.8304 2.92979 25Z" fill="black"/>
<path d="M34.414 23.535H26.4649V15.5859C26.4649 14.7769 25.809 14.121 25 14.121C24.191 14.121 23.5352 14.7769 23.5352 15.5859V24.9999C23.5352 25.8088 24.191 26.4647 25 26.4647H34.414C35.223 26.4647 35.8788 25.8088 35.8788 24.9999C35.8788 24.1909 35.223 23.535 34.414 23.535Z" fill="black"/>
</svg>
