<svg width="50" height="50" viewBox="0 0 50 50" fill="none" xmlns="http://www.w3.org/2000/svg">
<path d="M2.92949 25C2.92949 24.191 2.27363 23.5351 1.46465 23.5351C0.655659 23.5351 -0.000198364 24.191 0 25C0 31.6777 2.60029 37.9557 7.32227 42.6776L9.5176 40.7143C5.45286 36.7091 2.92949 31.1437 2.92949 25Z" fill="black"/>
<path d="M47.0702 25C47.0702 37.1695 37.1695 47.0701 24.9999 47.0701C22.2337 47.0701 19.5847 46.5586 17.1426 45.6252L15.714 48.226C18.6282 49.3906 21.7672 50 24.9999 50C31.6777 50 37.9557 47.3995 42.6777 42.6776C47.3996 37.9557 50 31.6777 50 25C50 18.3224 47.3996 12.0444 42.6777 7.32241C37.9558 2.60066 31.6777 0.000189288 24.9999 0.000189288C20.5075 0.000189288 16.1451 1.19286 12.3083 3.45818L9.27931 0.429191C8.86046 0.0101502 8.23048 -0.11524 7.68292 0.111614C7.13546 0.338371 6.77862 0.87245 6.77862 1.46493V8.47397C6.77862 9.28295 7.43448 9.93881 8.24347 9.93881H15.2526C15.845 9.93881 16.3791 9.58187 16.6059 9.03451C16.8326 8.48706 16.7073 7.85708 16.2883 7.43814L14.457 5.6068C17.6793 3.85114 21.289 2.92976 24.9999 2.92976C37.1695 2.92976 47.0702 12.8304 47.0702 25Z" fill="black"/>
<path d="M15.586 23.535H23.5351V15.5859C23.5351 14.7769 24.191 14.121 25 14.121C25.809 14.121 26.4648 14.7769 26.4648 15.5859V24.9999C26.4648 25.8088 25.809 26.4647 25 26.4647H15.586C14.777 26.4647 14.1212 25.8088 14.1212 24.9999C14.1212 24.1909 14.777 23.535 15.586 23.535Z" fill="black"/>
</svg>
