<svg width="30" height="30" viewBox="0 0 30 30" fill="none" xmlns="http://www.w3.org/2000/svg">
<g clip-path="url(#clip0)">
<path d="M19.0507 10.0512L19.2833 10.5226L19.8036 10.5982L28.8608 11.9144L22.3065 18.3029L21.93 18.6699L22.0189 19.1881L23.5663 28.2088L15.4654 23.9497L15 23.705L14.5346 23.9497L6.43357 28.2088L7.98044 19.188L8.06929 18.6699L7.69286 18.3029L1.1392 11.9144L10.1963 10.5982L10.7165 10.5226L10.9492 10.0512L15 1.84396L19.0507 10.0512ZM6.21613 28.3231C6.21623 28.323 6.21633 28.323 6.21643 28.3229L6.2163 28.323L6.21613 28.3231ZM0.963507 11.7431C0.963532 11.7432 0.963558 11.7432 0.963583 11.7432L0.963507 11.7431Z" stroke="black" stroke-width="2"/>
</g>
<defs>
<clipPath id="clip0">
<rect width="30" height="30" fill="white"/>
</clipPath>
</defs>
</svg>
