<svg width="48" height="48" viewBox="0 0 48 48" fill="none" xmlns="http://www.w3.org/2000/svg">
<path d="M11.2284 30.9712H8.52839V16.5112H11.2284V30.9712ZM26.3859 23.7212V29.5712C25.6526 30.1112 24.8692 30.5079 24.0359 30.7612C23.2092 31.0079 22.3226 31.1312 21.3759 31.1312C20.1959 31.1312 19.1259 30.9479 18.1659 30.5812C17.2126 30.2145 16.3959 29.7045 15.7159 29.0512C15.0426 28.3979 14.5226 27.6179 14.1559 26.7112C13.7892 25.8045 13.6059 24.8145 13.6059 23.7412C13.6059 22.6545 13.7826 21.6579 14.1359 20.7512C14.4892 19.8445 14.9892 19.0645 15.6359 18.4112C16.2892 17.7579 17.0792 17.2512 18.0059 16.8912C18.9326 16.5312 19.9726 16.3512 21.1259 16.3512C21.7126 16.3512 22.2592 16.3979 22.7659 16.4912C23.2792 16.5845 23.7526 16.7145 24.1859 16.8812C24.6259 17.0412 25.0259 17.2379 25.3859 17.4712C25.7459 17.7045 26.0759 17.9612 26.3759 18.2412L25.6059 19.4612C25.4859 19.6545 25.3292 19.7745 25.1359 19.8212C24.9426 19.8612 24.7326 19.8112 24.5059 19.6712C24.2859 19.5445 24.0659 19.4179 23.8459 19.2912C23.6259 19.1645 23.3792 19.0545 23.1059 18.9612C22.8392 18.8679 22.5359 18.7912 22.1959 18.7312C21.8626 18.6712 21.4759 18.6412 21.0359 18.6412C20.3226 18.6412 19.6759 18.7612 19.0959 19.0012C18.5226 19.2412 18.0326 19.5845 17.6259 20.0312C17.2192 20.4779 16.9059 21.0145 16.6859 21.6412C16.4659 22.2679 16.3559 22.9679 16.3559 23.7412C16.3559 24.5679 16.4726 25.3079 16.7059 25.9612C16.9459 26.6079 17.2792 27.1579 17.7059 27.6112C18.1392 28.0579 18.6592 28.4012 19.2659 28.6412C19.8726 28.8745 20.5492 28.9912 21.2959 28.9912C21.8292 28.9912 22.3059 28.9345 22.7259 28.8212C23.1459 28.7079 23.5559 28.5545 23.9559 28.3612V25.7412H22.1359C21.9626 25.7412 21.8259 25.6945 21.7259 25.6012C21.6326 25.5012 21.5859 25.3812 21.5859 25.2412V23.7212H26.3859Z" fill="black"/>
<path d="M34.7256 16.457H36.8837V24.2263H34.7256V16.457Z" fill="#00BCE4"/>
<rect x="40.2471" y="23.3633" width="2.15812" height="7.76924" fill="#FF4554"/>
<rect x="39.689" y="19.2617" width="2.16" height="7.76924" transform="rotate(90 39.689 19.2617)" fill="#00BCE4"/>
<rect x="45.2109" y="26.168" width="2.16" height="7.76924" transform="rotate(90 45.2109 26.168)" fill="#FF4554"/>
</svg>
