<svg width="70" height="70" viewBox="0 0 70 70" fill="none" xmlns="http://www.w3.org/2000/svg">
<path d="M14.2007 48.6665H9.34071V22.6385H14.2007V48.6665ZM41.4842 35.6165V46.1465C40.1642 47.1185 38.7542 47.8325 37.2542 48.2885C35.7662 48.7325 34.1702 48.9545 32.4662 48.9545C30.3422 48.9545 28.4162 48.6245 26.6882 47.9645C24.9722 47.3045 23.5022 46.3865 22.2782 45.2105C21.0662 44.0345 20.1302 42.6305 19.4702 40.9985C18.8102 39.3665 18.4802 37.5845 18.4802 35.6525C18.4802 33.6965 18.7982 31.9025 19.4342 30.2705C20.0702 28.6385 20.9702 27.2345 22.1342 26.0585C23.3102 24.8825 24.7322 23.9705 26.4002 23.3225C28.0682 22.6745 29.9402 22.3505 32.0162 22.3505C33.0722 22.3505 34.0562 22.4345 34.9682 22.6025C35.8922 22.7705 36.7442 23.0045 37.5242 23.3045C38.3162 23.5925 39.0362 23.9465 39.6842 24.3665C40.3322 24.7865 40.9262 25.2485 41.4662 25.7525L40.0802 27.9485C39.8642 28.2965 39.5822 28.5125 39.2342 28.5965C38.8862 28.6685 38.5082 28.5785 38.1002 28.3265C37.7042 28.0985 37.3082 27.8705 36.9122 27.6425C36.5162 27.4145 36.0722 27.2165 35.5802 27.0485C35.1002 26.8805 34.5542 26.7425 33.9422 26.6345C33.3422 26.5265 32.6462 26.4725 31.8542 26.4725C30.5702 26.4725 29.4062 26.6885 28.3622 27.1205C27.3302 27.5525 26.4482 28.1705 25.7162 28.9745C24.9842 29.7785 24.4202 30.7445 24.0242 31.8725C23.6282 33.0005 23.4302 34.2605 23.4302 35.6525C23.4302 37.1405 23.6402 38.4725 24.0602 39.6485C24.4922 40.8125 25.0922 41.8025 25.8602 42.6185C26.6402 43.4225 27.5762 44.0405 28.6682 44.4725C29.7602 44.8925 30.9782 45.1025 32.3222 45.1025C33.2822 45.1025 34.1402 45.0005 34.8962 44.7965C35.6522 44.5925 36.3902 44.3165 37.1102 43.9685V39.2525H33.8342C33.5222 39.2525 33.2762 39.1685 33.0962 39.0005C32.9282 38.8205 32.8442 38.6045 32.8442 38.3525V35.6165H41.4842Z" fill="#120A0A"/>
<path d="M53.0005 24.0986H56.1477V35.4288H53.0005V24.0986Z" fill="#00BCE4"/>
<rect x="61.0522" y="34.1699" width="3.14726" height="11.3301" fill="#FF4554"/>
<rect x="60.2388" y="28.1885" width="3.15" height="11.3301" transform="rotate(90 60.2388 28.1885)" fill="#00BCE4"/>
<rect x="68.291" y="38.2603" width="3.15" height="11.3301" transform="rotate(90 68.291 38.2603)" fill="#FF4554"/>
</svg>
