<svg width="70" height="70" viewBox="0 0 70 70" fill="none" xmlns="http://www.w3.org/2000/svg">
<path d="M14.2007 48.6667H9.34071V22.6387H14.2007V48.6667ZM41.4842 35.6167V46.1467C40.1642 47.1187 38.7542 47.8327 37.2542 48.2887C35.7662 48.7327 34.1702 48.9547 32.4662 48.9547C30.3422 48.9547 28.4162 48.6247 26.6882 47.9647C24.9722 47.3047 23.5022 46.3867 22.2782 45.2107C21.0662 44.0347 20.1302 42.6307 19.4702 40.9987C18.8102 39.3667 18.4802 37.5847 18.4802 35.6527C18.4802 33.6967 18.7982 31.9027 19.4342 30.2707C20.0702 28.6387 20.9702 27.2347 22.1342 26.0587C23.3102 24.8827 24.7322 23.9707 26.4002 23.3227C28.0682 22.6747 29.9402 22.3507 32.0162 22.3507C33.0722 22.3507 34.0562 22.4347 34.9682 22.6027C35.8922 22.7707 36.7442 23.0047 37.5242 23.3047C38.3162 23.5927 39.0362 23.9467 39.6842 24.3667C40.3322 24.7867 40.9262 25.2487 41.4662 25.7527L40.0802 27.9487C39.8642 28.2967 39.5822 28.5127 39.2342 28.5967C38.8862 28.6687 38.5082 28.5787 38.1002 28.3267C37.7042 28.0987 37.3082 27.8707 36.9122 27.6427C36.5162 27.4147 36.0722 27.2167 35.5802 27.0487C35.1002 26.8807 34.5542 26.7427 33.9422 26.6347C33.3422 26.5267 32.6462 26.4727 31.8542 26.4727C30.5702 26.4727 29.4062 26.6887 28.3622 27.1207C27.3302 27.5527 26.4482 28.1707 25.7162 28.9747C24.9842 29.7787 24.4202 30.7447 24.0242 31.8727C23.6282 33.0007 23.4302 34.2607 23.4302 35.6527C23.4302 37.1407 23.6402 38.4727 24.0602 39.6487C24.4922 40.8127 25.0922 41.8027 25.8602 42.6187C26.6402 43.4227 27.5762 44.0407 28.6682 44.4727C29.7602 44.8927 30.9782 45.1027 32.3222 45.1027C33.2822 45.1027 34.1402 45.0007 34.8962 44.7967C35.6522 44.5927 36.3902 44.3167 37.1102 43.9687V39.2527H33.8342C33.5222 39.2527 33.2762 39.1687 33.0962 39.0007C32.9282 38.8207 32.8442 38.6047 32.8442 38.3527V35.6167H41.4842Z" fill="#120A0A"/>
<path d="M53.0005 24.0986H56.1477V35.4288H53.0005V24.0986Z" fill="#FF4554"/>
<rect x="61.0522" y="34.17" width="3.14726" height="11.3301" fill="#FF4554"/>
<rect x="60.2388" y="28.1887" width="3.15" height="11.3301" transform="rotate(90 60.2388 28.1887)" fill="#FF4554"/>
<rect x="68.291" y="38.2601" width="3.15" height="11.3301" transform="rotate(90 68.291 38.2601)" fill="#FF4554"/>
</svg>
