<svg width="660" height="109" viewBox="0 0 660 109" fill="none" xmlns="http://www.w3.org/2000/svg">
<path d="M19.395 89H7.245V23.93H19.395V89ZM88.8188 23.93V89H82.6088C81.6488 89 80.8388 88.85 80.1788 88.55C79.5488 88.22 78.9338 87.68 78.3338 86.93L44.3588 43.55C44.5388 45.53 44.6288 47.36 44.6288 49.04V89H33.9638V23.93H40.3088C40.8188 23.93 41.2538 23.96 41.6138 24.02C42.0038 24.05 42.3338 24.14 42.6038 24.29C42.9038 24.41 43.1888 24.605 43.4588 24.875C43.7288 25.115 44.0288 25.445 44.3588 25.865L78.4688 69.425C78.3788 68.375 78.3038 67.34 78.2438 66.32C78.1838 65.3 78.1538 64.355 78.1538 63.485V23.93H88.8188ZM101.194 57.185H124.504V66.455H101.194V57.185ZM190.524 56.375V82.7C187.224 85.13 183.699 86.915 179.949 88.055C176.229 89.165 172.239 89.72 167.979 89.72C162.669 89.72 157.854 88.895 153.534 87.245C149.244 85.595 145.569 83.3 142.509 80.36C139.479 77.42 137.139 73.91 135.489 69.83C133.839 65.75 133.014 61.295 133.014 56.465C133.014 51.575 133.809 47.09 135.399 43.01C136.989 38.93 139.239 35.42 142.149 32.48C145.089 29.54 148.644 27.26 152.814 25.64C156.984 24.02 161.664 23.21 166.854 23.21C169.494 23.21 171.954 23.42 174.234 23.84C176.544 24.26 178.674 24.845 180.624 25.595C182.604 26.315 184.404 27.2 186.024 28.25C187.644 29.3 189.129 30.455 190.479 31.715L187.014 37.205C186.474 38.075 185.769 38.615 184.899 38.825C184.029 39.005 183.084 38.78 182.064 38.15C181.074 37.58 180.084 37.01 179.094 36.44C178.104 35.87 176.994 35.375 175.764 34.955C174.564 34.535 173.199 34.19 171.669 33.92C170.169 33.65 168.429 33.515 166.449 33.515C163.239 33.515 160.329 34.055 157.719 35.135C155.139 36.215 152.934 37.76 151.104 39.77C149.274 41.78 147.864 44.195 146.874 47.015C145.884 49.835 145.389 52.985 145.389 56.465C145.389 60.185 145.914 63.515 146.964 66.455C148.044 69.365 149.544 71.84 151.464 73.88C153.414 75.89 155.754 77.435 158.484 78.515C161.214 79.565 164.259 80.09 167.619 80.09C170.019 80.09 172.164 79.835 174.054 79.325C175.944 78.815 177.789 78.125 179.589 77.255V65.465H171.399C170.619 65.465 170.004 65.255 169.554 64.835C169.134 64.385 168.924 63.845 168.924 63.215V56.375H190.524ZM235.775 64.43L227.855 42.785C227.465 41.825 227.06 40.685 226.64 39.365C226.22 38.045 225.8 36.62 225.38 35.09C224.99 36.62 224.585 38.06 224.165 39.41C223.745 40.73 223.34 41.885 222.95 42.875L215.075 64.43H235.775ZM257.15 89H247.79C246.74 89 245.885 88.745 245.225 88.235C244.565 87.695 244.07 87.035 243.74 86.255L238.88 72.98H211.925L207.065 86.255C206.825 86.945 206.36 87.575 205.67 88.145C204.98 88.715 204.125 89 203.105 89H193.655L219.26 23.93H231.59L257.15 89ZM334.446 23.93V89H323.781V46.97C323.781 45.29 323.871 43.475 324.051 41.525L304.386 78.47C303.456 80.24 302.031 81.125 300.111 81.125H298.401C296.481 81.125 295.056 80.24 294.126 78.47L274.236 41.39C274.326 42.38 274.401 43.355 274.461 44.315C274.521 45.275 274.551 46.16 274.551 46.97V89H263.886V23.93H273.021C273.561 23.93 274.026 23.945 274.416 23.975C274.806 24.005 275.151 24.08 275.451 24.2C275.781 24.32 276.066 24.515 276.306 24.785C276.576 25.055 276.831 25.415 277.071 25.865L296.556 62C297.066 62.96 297.531 63.95 297.951 64.97C298.401 65.99 298.836 67.04 299.256 68.12C299.676 67.01 300.111 65.945 300.561 64.925C301.011 63.875 301.491 62.87 302.001 61.91L321.216 25.865C321.456 25.415 321.711 25.055 321.981 24.785C322.251 24.515 322.536 24.32 322.836 24.2C323.166 24.08 323.526 24.005 323.916 23.975C324.306 23.945 324.771 23.93 325.311 23.93H334.446ZM361.114 33.56V51.605H383.884V60.92H361.114V79.325H390.004V89H348.964V23.93H390.004V33.56H361.114ZM442.281 54.89C444.561 54.89 446.541 54.605 448.221 54.035C449.931 53.465 451.326 52.685 452.406 51.695C453.516 50.675 454.341 49.475 454.881 48.095C455.421 46.715 455.691 45.2 455.691 43.55C455.691 40.25 454.596 37.715 452.406 35.945C450.246 34.175 446.931 33.29 442.461 33.29H434.721V54.89H442.281ZM473.421 89H462.486C460.416 89 458.916 88.19 457.986 86.57L444.306 65.735C443.796 64.955 443.226 64.4 442.596 64.07C441.996 63.74 441.096 63.575 439.896 63.575H434.721V89H422.616V23.93H442.461C446.871 23.93 450.651 24.395 453.801 25.325C456.981 26.225 459.576 27.5 461.586 29.15C463.626 30.8 465.126 32.78 466.086 35.09C467.046 37.37 467.526 39.89 467.526 42.65C467.526 44.84 467.196 46.91 466.536 48.86C465.906 50.81 464.976 52.58 463.746 54.17C462.546 55.76 461.046 57.155 459.246 58.355C457.476 59.555 455.451 60.5 453.171 61.19C453.951 61.64 454.671 62.18 455.331 62.81C455.991 63.41 456.591 64.13 457.131 64.97L473.421 89ZM515.098 35.765C514.738 36.395 514.348 36.86 513.928 37.16C513.538 37.43 513.043 37.565 512.443 37.565C511.813 37.565 511.123 37.34 510.373 36.89C509.653 36.41 508.783 35.885 507.763 35.315C506.743 34.745 505.543 34.235 504.163 33.785C502.813 33.305 501.208 33.065 499.348 33.065C497.668 33.065 496.198 33.275 494.938 33.695C493.678 34.085 492.613 34.64 491.743 35.36C490.903 36.08 490.273 36.95 489.853 37.97C489.433 38.96 489.223 40.055 489.223 41.255C489.223 42.785 489.643 44.06 490.483 45.08C491.353 46.1 492.493 46.97 493.903 47.69C495.313 48.41 496.918 49.055 498.718 49.625C500.518 50.195 502.363 50.81 504.253 51.47C506.143 52.1 507.988 52.85 509.788 53.72C511.588 54.56 513.193 55.64 514.603 56.96C516.013 58.25 517.138 59.84 517.978 61.73C518.848 63.62 519.283 65.915 519.283 68.615C519.283 71.555 518.773 74.315 517.753 76.895C516.763 79.445 515.293 81.68 513.343 83.6C511.423 85.49 509.068 86.99 506.278 88.1C503.488 89.18 500.293 89.72 496.693 89.72C494.623 89.72 492.583 89.51 490.573 89.09C488.563 88.7 486.628 88.13 484.768 87.38C482.938 86.63 481.213 85.73 479.593 84.68C477.973 83.63 476.533 82.46 475.273 81.17L478.828 75.365C479.128 74.945 479.518 74.6 479.998 74.33C480.478 74.03 480.988 73.88 481.528 73.88C482.278 73.88 483.088 74.195 483.958 74.825C484.828 75.425 485.863 76.1 487.063 76.85C488.263 77.6 489.658 78.29 491.248 78.92C492.868 79.52 494.803 79.82 497.053 79.82C500.503 79.82 503.173 79.01 505.063 77.39C506.953 75.74 507.898 73.385 507.898 70.325C507.898 68.615 507.463 67.22 506.593 66.14C505.753 65.06 504.628 64.16 503.218 63.44C501.808 62.69 500.203 62.06 498.403 61.55C496.603 61.04 494.773 60.485 492.913 59.885C491.053 59.285 489.223 58.565 487.423 57.725C485.623 56.885 484.018 55.79 482.608 54.44C481.198 53.09 480.058 51.41 479.188 49.4C478.348 47.36 477.928 44.855 477.928 41.885C477.928 39.515 478.393 37.205 479.323 34.955C480.283 32.705 481.663 30.71 483.463 28.97C485.263 27.23 487.483 25.835 490.123 24.785C492.763 23.735 495.793 23.21 499.213 23.21C503.053 23.21 506.593 23.81 509.833 25.01C513.073 26.21 515.833 27.89 518.113 30.05L515.098 35.765ZM564.493 35.765C564.133 36.395 563.743 36.86 563.323 37.16C562.933 37.43 562.438 37.565 561.838 37.565C561.208 37.565 560.518 37.34 559.768 36.89C559.048 36.41 558.178 35.885 557.158 35.315C556.138 34.745 554.938 34.235 553.558 33.785C552.208 33.305 550.603 33.065 548.743 33.065C547.063 33.065 545.593 33.275 544.333 33.695C543.073 34.085 542.008 34.64 541.138 35.36C540.298 36.08 539.668 36.95 539.248 37.97C538.828 38.96 538.618 40.055 538.618 41.255C538.618 42.785 539.038 44.06 539.878 45.08C540.748 46.1 541.888 46.97 543.298 47.69C544.708 48.41 546.313 49.055 548.113 49.625C549.913 50.195 551.758 50.81 553.648 51.47C555.538 52.1 557.383 52.85 559.183 53.72C560.983 54.56 562.588 55.64 563.998 56.96C565.408 58.25 566.533 59.84 567.373 61.73C568.243 63.62 568.678 65.915 568.678 68.615C568.678 71.555 568.168 74.315 567.148 76.895C566.158 79.445 564.688 81.68 562.738 83.6C560.818 85.49 558.463 86.99 555.673 88.1C552.883 89.18 549.688 89.72 546.088 89.72C544.018 89.72 541.978 89.51 539.968 89.09C537.958 88.7 536.023 88.13 534.163 87.38C532.333 86.63 530.608 85.73 528.988 84.68C527.368 83.63 525.928 82.46 524.668 81.17L528.223 75.365C528.523 74.945 528.913 74.6 529.393 74.33C529.873 74.03 530.383 73.88 530.923 73.88C531.673 73.88 532.483 74.195 533.353 74.825C534.223 75.425 535.258 76.1 536.458 76.85C537.658 77.6 539.053 78.29 540.643 78.92C542.263 79.52 544.198 79.82 546.448 79.82C549.898 79.82 552.568 79.01 554.458 77.39C556.348 75.74 557.293 73.385 557.293 70.325C557.293 68.615 556.858 67.22 555.988 66.14C555.148 65.06 554.023 64.16 552.613 63.44C551.203 62.69 549.598 62.06 547.798 61.55C545.998 61.04 544.168 60.485 542.308 59.885C540.448 59.285 538.618 58.565 536.818 57.725C535.018 56.885 533.413 55.79 532.003 54.44C530.593 53.09 529.453 51.41 528.583 49.4C527.743 47.36 527.323 44.855 527.323 41.885C527.323 39.515 527.788 37.205 528.718 34.955C529.678 32.705 531.058 30.71 532.858 28.97C534.658 27.23 536.878 25.835 539.518 24.785C542.158 23.735 545.188 23.21 548.608 23.21C552.448 23.21 555.988 23.81 559.228 25.01C562.468 26.21 565.228 27.89 567.508 30.05L564.493 35.765Z" fill="black"/>
<rect x="597.212" y="15.5459" width="12.808" height="42.6933" fill="#00BCE4"/>
<rect x="624.963" y="30.4883" width="12.808" height="42.6933" transform="rotate(90 624.963 30.4883)" fill="#00BCE4"/>
<rect x="632.249" y="51.9219" width="12.808" height="42.6933" fill="#FF4554"/>
<rect x="660" y="66.8643" width="12.808" height="42.6933" transform="rotate(90 660 66.8643)" fill="#FF4554"/>
</svg>
