<svg width="50" height="50" viewBox="0 0 50 50" fill="none" xmlns="http://www.w3.org/2000/svg">
<path d="M48.973 19.2823L48.9731 19.2826C49.0393 19.496 48.9791 19.7217 48.843 19.8608L48.8429 19.8608L37.6261 31.322L37.2722 31.6836L37.3539 32.1829L40.002 48.3661C40.002 48.3661 40.002 48.3662 40.002 48.3662C40.0387 48.5908 39.9464 48.7997 39.8 48.9112C39.6615 49.0167 39.4901 49.0271 39.3459 48.9477L25.4827 41.3069L25 41.0409L24.5173 41.3069L10.6534 48.9478L10.6532 48.9479C10.5881 48.9838 10.5204 49 10.4546 49C10.3694 49 10.2802 48.9727 10.1995 48.9114C10.0531 48.7998 9.96089 48.591 9.99765 48.3665L9.99767 48.3663L12.6449 32.1829L12.7266 31.6836L12.3728 31.3221L1.15719 19.861L1.1571 19.8609C1.02094 19.7218 0.960671 19.496 1.02692 19.2823L1.02695 19.2822C1.09198 19.0723 1.25196 18.953 1.40462 18.9298L1.40478 18.9298L16.9047 16.5685L17.4318 16.4882L17.6589 16.0059L24.5912 1.28191L23.7313 0.877042L24.5912 1.2819C24.6813 1.09067 24.8487 1 25.0001 1C25.1514 1 25.3188 1.09071 25.4087 1.28177L25.4088 1.2819L32.3409 16.0059L32.568 16.4882L33.0951 16.5685L48.5953 18.9298L48.5955 18.9298C48.748 18.953 48.9079 19.0722 48.973 19.2823Z" fill="black" stroke="black" stroke-width="2"/>
</svg>
